# xmcd
#
# Track frame offsets:
#	150
#	9826
#	24974
#	37209
#	54933
#	69750
#	86973
#	104611
#	120388
#	130376
#
# Disc length: 1977 seconds
#
# Revision: 0
# Processed by: cddbd v1.4PL0 Copyright (c) Steve Scherf et al.
# Submitted via: dBpowerAMP V4.0
#
DISCID=7a07b70a
DTITLE=David Allan Coe - Nothing Scared
DYEAR=1900
DGENRE=Country
TTITLE0=The Three Biggest Lies
TTITLE1=Cum stains on the pillow
TTITLE2=Fuck Anita Bryant
TTITLE3=Jimmy Buffett
TTITLE4=Linda Lovelace
TTITLE5=Masterbation Blues
TTITLE6=Nothing Scared
TTITLE7=Pussy Whipped
TTITLE8=Rails
TTITLE9=Whip's and things
EXTD=ADULTS ONLY\nNOT FOR AIRPLAY\n
EXTT0=
EXTT1=
EXTT2=
EXTT3=
EXTT4=
EXTT5=
EXTT6=
EXTT7=
EXTT8=
EXTT9=
PLAYORDER=
